<svg width="80" height="69" viewBox="0 0 80 69" fill="none" xmlns="http://www.w3.org/2000/svg">
<path d="M59.6105 58.17H4.61051C2.64209 58.17 1.05261 56.65 1.05261 54.78V4.39C1.05261 2.52 2.64209 1 4.61051 1H69.821C71.7895 1 73.3789 2.52 73.3789 4.39V32.45" stroke="black" stroke-width="1.3" stroke-linecap="round"/>
<path d="M59.6105 52.36H7.46315C7.27368 52.36 7.11578 52.21 7.11578 52.02V7.15001C7.11578 6.97001 7.27368 6.82001 7.46315 6.82001H66.9684C67.1579 6.82001 67.3158 6.97001 67.3158 7.15001V32.45" stroke="black" stroke-width="1.3" stroke-linecap="round"/>
<path fill-rule="evenodd" clip-rule="evenodd" d="M75.8105 66.88H62.6737C60.979 66.88 59.6105 65.58 59.6105 63.97V35.37C59.6105 33.76 60.979 32.46 62.6737 32.46H75.8105C77.5053 32.46 78.8737 33.76 78.8737 35.37V63.97C78.8737 65.57 77.5053 66.88 75.8105 66.88Z" stroke="black" stroke-width="1.3" stroke-linecap="round"/>
<path d="M59.8105 36.81H78.6736Z" fill="white"/>
<path d="M59.8105 36.81H78.6736" stroke="black" stroke-width="1.3" stroke-linecap="round"/>
<path d="M59.8105 61.84H78.6736" stroke="black" stroke-width="1.3" stroke-linecap="round"/>
<path fill-rule="evenodd" clip-rule="evenodd" d="M74.5263 53.56H63.9579C63.8316 53.56 63.7263 53.46 63.7263 53.34V45.99C63.7263 45.87 63.8316 45.77 63.9579 45.77H74.5263C74.6526 45.77 74.7579 45.87 74.7579 45.99V53.34C74.7579 53.46 74.6526 53.56 74.5263 53.56Z" stroke="black" stroke-width="1.3" stroke-linecap="round"/>
<path d="M63.9895 45.95L69.2421 49.67L74.4632 45.95" stroke="black" stroke-width="1.3" stroke-linejoin="round"/>
<path d="M27.8737 58.82V67.8" stroke="black" stroke-width="1.3"/>
<path d="M53.0842 68.12H21.3369" stroke="black" stroke-width="1.3" stroke-linecap="round"/>
<path d="M46.4211 58.82V67.8" stroke="black" stroke-width="1.3"/>
<path d="M49.4421 33.48C54.7579 32.82 54.5368 28.4 54.5368 28.4C54.5474 24.21 49.6316 23.64 49.6316 23.64M19.8947 32.74V23.85C19.8947 23.45 20.2421 23.12 20.6737 23.12H30.9473L48.8631 15.05C49.0105 14.99 49.1789 15.08 49.1789 15.23V41.77C49.1789 41.92 49.0105 42.02 48.8631 41.95L30.5368 33.5L20.6737 33.46C20.2421 33.46 19.8947 33.14 19.8947 32.74V32.74ZM30.9368 23.21V33.59V23.21ZM23.9895 33.48V43.98C23.9895 44.07 24.0737 44.15 24.1684 44.15H28.8105C28.9052 44.15 28.9895 44.07 28.9895 43.98V33.48H23.9895Z" stroke="url(#paint0_linear)" stroke-width="1.3"/>
<defs>
<linearGradient id="paint0_linear" x1="37.2136" y1="14.3789" x2="37.2136" y2="44.7932" gradientUnits="userSpaceOnUse">
<stop stop-color="#FDBE10"/>
<stop offset="0.1565" stop-color="#F2671E"/>
<stop offset="0.2275" stop-color="#ED4523"/>
<stop offset="0.2988" stop-color="#CC3D43"/>
<stop offset="0.4004" stop-color="#A3336B"/>
<stop offset="0.4806" stop-color="#892C84"/>
<stop offset="0.5288" stop-color="#802A8D"/>
<stop offset="0.7947" stop-color="#2483C5"/>
<stop offset="1" stop-color="#00AC4C"/>
</linearGradient>
</defs>
</svg>
