<svg width="80" height="65" viewBox="0 0 80 65" fill="none" xmlns="http://www.w3.org/2000/svg">
<path fill-rule="evenodd" clip-rule="evenodd" d="M72.1412 63.86H7.3647C4.02353 63.86 1.30588 61.55 1.30588 58.71V6.65C1.30588 3.81 4.02353 1.5 7.3647 1.5H72.1412C75.4824 1.5 78.2 3.81 78.2 6.65V58.71C78.2 61.55 75.4941 63.86 72.1412 63.86Z" stroke="black" stroke-width="1.3" stroke-linecap="round"/>
<path d="M65.0588 2.02002V63.58V2.02002ZM78.2235 13.89H65.1059H78.2235ZM78.1529 26.57H65.0353H78.1529ZM78.2235 38.96H65.1059H78.2235ZM78.3412 51.64H65.2118H78.3412ZM14.4471 2.02002V63.58V2.02002ZM1.28235 13.88H14.4H1.28235ZM1.35294 26.56H14.4824H1.35294ZM1.28235 38.96H14.4H1.28235ZM1.17647 51.64H14.2941Z" fill="white"/>
<path d="M1.17647 51.64H14.2941M65.0588 2.02002V63.58V2.02002ZM78.2235 13.89H65.1059H78.2235ZM78.1529 26.57H65.0353H78.1529ZM78.2235 38.96H65.1059H78.2235ZM78.3412 51.64H65.2118H78.3412ZM14.4471 2.02002V63.58V2.02002ZM1.28235 13.88H14.4H1.28235ZM1.35294 26.56H14.4824H1.35294ZM1.28235 38.96H14.4H1.28235Z" stroke="black" stroke-width="1.3" stroke-linecap="round"/>
<path d="M53.1765 30.03C53.1765 30.03 52.9647 37.89 42.0824 39.02C42.0824 39.02 42.3529 39.01 42.0824 39.02M47.0941 18.54H32.5294V1.48999H47.0941V18.54ZM39.8118 13.08V1.73999V13.08ZM39.9176 34.15V25.84V34.15ZM30.4471 52.92V46.76V52.92ZM26.8235 49.85H34.0706H26.8235ZM49.0588 48.47V45.39V48.47ZM47.2471 46.94H50.8706H47.2471ZM30.2588 13.42H49.2588H30.2588ZM42.4471 39.05H53.2353H42.4471ZM26.3647 39.15H37.1529H26.3647ZM33.8588 18.77V26.52C33.8588 26.72 33.9765 26.9 34.1765 27C35.3176 27.57 39.1765 29.75 39.8118 33.73C39.8118 33.73 39.7882 36.67 39.8118 36.77L33.8588 18.77ZM39.8588 36.77C39.8824 36.66 39.8588 33.73 39.8588 33.73C40.4941 29.75 44.3529 27.57 45.4941 27C45.6941 26.9 45.8118 26.72 45.8118 26.52V18.77L39.8588 36.77ZM42.0824 40.83V37.83C42.0824 37.7053 42.0241 37.5858 41.9204 37.4977C41.8167 37.4095 41.6761 37.36 41.5294 37.36H38.1059C37.9592 37.36 37.8186 37.4095 37.7149 37.4977C37.6112 37.5858 37.5529 37.7053 37.5529 37.83V40.83C37.5529 41.09 37.8 41.3 38.1059 41.3H41.5294C41.8353 41.3 42.0824 41.09 42.0824 40.83ZM25.9647 39.21C25.9647 38.02 24.8353 37.06 23.4353 37.06C22.0353 37.06 20.9059 38.02 20.9059 39.21C20.9059 40.4 22.0353 41.36 23.4353 41.36C24.8235 41.36 25.9647 40.39 25.9647 39.21ZM58.6118 39.15C58.6118 37.96 57.4824 37 56.0824 37C54.6824 37 53.5529 37.96 53.5529 39.15C53.5529 40.34 54.6824 41.3 56.0824 41.3C57.4824 41.3 58.6118 40.34 58.6118 39.15ZM42.1529 23.61C42.1529 23.1008 41.915 22.6124 41.4914 22.2523C41.0677 21.8923 40.4932 21.69 39.8941 21.69C39.295 21.69 38.7205 21.8923 38.2969 22.2523C37.8733 22.6124 37.6353 23.1008 37.6353 23.61C37.6353 24.1192 37.8733 24.6076 38.2969 24.9676C38.7205 25.3277 39.295 25.53 39.8941 25.53C40.4932 25.53 41.0677 25.3277 41.4914 24.9676C41.915 24.6076 42.1529 24.1192 42.1529 23.61V23.61ZM37.5647 39.01C37.3059 39 37.8118 39.03 37.5647 39.01C26.7882 37.83 26.5765 30.03 26.5765 30.03L37.5647 39.01Z" stroke="url(#paint0_linear)" stroke-width="1.3" stroke-linecap="round"/>
<path d="M29.7529 1.5H52.2471" stroke="black" stroke-width="1.3" stroke-linecap="round"/>
<defs>
<linearGradient id="paint0_linear" x1="46.9689" y1="16.2432" x2="26.5213" y2="30.132" gradientUnits="userSpaceOnUse">
<stop stop-color="#FDBE10"/>
<stop offset="0.1565" stop-color="#F2671E"/>
<stop offset="0.2275" stop-color="#ED4523"/>
<stop offset="0.2988" stop-color="#CC3D43"/>
<stop offset="0.4004" stop-color="#A3336B"/>
<stop offset="0.4806" stop-color="#892C84"/>
<stop offset="0.5288" stop-color="#802A8D"/>
<stop offset="0.7947" stop-color="#2483C5"/>
<stop offset="1" stop-color="#00AC4C"/>
</linearGradient>
</defs>
</svg>
