<svg width="80" height="72" viewBox="0 0 80 72" fill="none" xmlns="http://www.w3.org/2000/svg">
<path d="M29.6 60.2C29.6 60.2 29.9263 48.82 20.821 42.32C20.7216 42.2511 20.652 42.1503 20.6249 42.0363C20.5978 41.9223 20.6151 41.8028 20.6736 41.7L40.2631 7.64001M21.9052 71.01V66.64C21.9052 66.45 22.0736 66.29 22.2736 66.29H57.9473C58.1473 66.29 58.3158 66.45 58.3158 66.64V71.01H21.9052ZM26.1579 65.57V60.65C26.1579 60.43 26.2842 60.25 26.4421 60.25H54.1263C54.2842 60.25 54.4105 60.43 54.4105 60.65V65.57H26.1579Z" stroke="black" stroke-width="1.3" stroke-linecap="round"/>
<path d="M40.1053 7.51999V30.82M50.779 60.25C50.779 60.25 50.4526 48.87 59.5579 42.37C59.7579 42.23 59.8316 41.96 59.7053 41.75L40.1158 7.68999L50.779 60.25ZM43.5369 4.42999H72.5053H43.5369ZM8.02106 4.42999H36.6842H8.02106Z" stroke="black" stroke-width="1.3" stroke-linecap="round"/>
<path d="M75.9895 36.49C75.9895 18.87 61.9158 6 43.8631 4.43C43.7579 4.41 43.6421 4.4 43.5368 4.4M43.3368 7.52H36.8947C36.8671 7.52 36.8397 7.51483 36.8142 7.50478C36.7886 7.49473 36.7654 7.47999 36.7458 7.46142C36.7263 7.44285 36.7108 7.4208 36.7002 7.39654C36.6896 7.37227 36.6842 7.34626 36.6842 7.32V1.2C36.6842 1.09 36.7789 1 36.8947 1H43.3368C43.4526 1 43.5473 1.09 43.5473 1.2V7.32C43.5473 7.37304 43.5252 7.42391 43.4857 7.46142C43.4462 7.49893 43.3927 7.52 43.3368 7.52V7.52ZM79.1579 42.81V36.69C79.1579 36.637 79.1357 36.5861 79.0962 36.5486C79.0567 36.5111 79.0032 36.49 78.9473 36.49H72.5052C72.4494 36.49 72.3959 36.5111 72.3564 36.5486C72.3169 36.5861 72.2947 36.637 72.2947 36.69V42.81C72.2947 42.92 72.3894 43.01 72.5052 43.01H78.9473C79.0032 43.01 79.0567 42.9889 79.0962 42.9514C79.1357 42.9139 79.1579 42.863 79.1579 42.81ZM7.91577 42.81V36.69C7.91577 36.637 7.89359 36.5861 7.85411 36.5486C7.81463 36.5111 7.76108 36.49 7.70524 36.49H1.26314C1.2073 36.49 1.15376 36.5111 1.11427 36.5486C1.07479 36.5861 1.05261 36.637 1.05261 36.69V42.81C1.05261 42.92 1.14735 43.01 1.26314 43.01H7.70524C7.76108 43.01 7.81463 42.9889 7.85411 42.9514C7.89359 42.9139 7.91577 42.863 7.91577 42.81V42.81ZM36.6842 4.4C36.5684 4.4 36.4526 4.41 36.3368 4.43C18.2842 6 4.21051 18.87 4.21051 36.49L36.6842 4.4Z" stroke="url(#paint0_linear)" stroke-width="1.3" stroke-linecap="round"/>
<path d="M4.64207 7.63997C6.50821 7.63997 8.02102 6.2028 8.02102 4.42997C8.02102 2.65714 6.50821 1.21997 4.64207 1.21997C2.77593 1.21997 1.26312 2.65714 1.26312 4.42997C1.26312 6.2028 2.77593 7.63997 4.64207 7.63997Z" stroke="black" stroke-width="1.3" stroke-linecap="round"/>
<path d="M75.8842 7.63997C77.7503 7.63997 79.2631 6.2028 79.2631 4.42997C79.2631 2.65714 77.7503 1.21997 75.8842 1.21997C74.0181 1.21997 72.5052 2.65714 72.5052 4.42997C72.5052 6.2028 74.0181 7.63997 75.8842 7.63997Z" stroke="black" stroke-width="1.3" stroke-linecap="round"/>
<path d="M40.2632 37.25C42.1293 37.25 43.6421 35.8128 43.6421 34.04C43.6421 32.2671 42.1293 30.83 40.2632 30.83C38.397 30.83 36.8842 32.2671 36.8842 34.04C36.8842 35.8128 38.397 37.25 40.2632 37.25Z" stroke="black" stroke-width="1.3" stroke-linecap="round"/>
<defs>
<linearGradient id="paint0_linear" x1="69.2611" y1="19.8953" x2="17.3251" y2="51.4582" gradientUnits="userSpaceOnUse">
<stop stop-color="#FDBE10"/>
<stop offset="0.1565" stop-color="#F2671E"/>
<stop offset="0.2275" stop-color="#ED4523"/>
<stop offset="0.2988" stop-color="#CC3D43"/>
<stop offset="0.4004" stop-color="#A3336B"/>
<stop offset="0.4806" stop-color="#892C84"/>
<stop offset="0.5288" stop-color="#802A8D"/>
<stop offset="0.7947" stop-color="#2483C5"/>
<stop offset="1" stop-color="#00AC4C"/>
</linearGradient>
</defs>
</svg>
