<svg width="80" height="83" viewBox="0 0 80 83" fill="none" xmlns="http://www.w3.org/2000/svg">
<path d="M39.653 13.42L11.3639 30.5L39.653 13.42ZM39.7205 1L33.6386 8.63L39.7205 1ZM45.8892 8.63L39.8169 1L45.8892 8.63ZM78.4578 70.76L75.3446 61.41L78.4578 70.76ZM78.4097 70.85L68.9639 72.26L78.4097 70.85ZM1.01206 70.79L10.4289 72.41L1.01206 70.79ZM0.963867 70.71L4.26989 61.42L0.963867 70.71ZM39.8554 13.42L68.1446 30.5L39.8554 13.42ZM39.6145 47.52L12.0771 30.95L39.6145 47.52ZM39.8072 47.67L68.0964 30.59L39.8072 47.67ZM1.06989 70.53L32.8675 51.59L1.06989 70.53ZM78.4868 70.64L47.1036 51.85L78.4868 70.64ZM68.1542 64.45V30.49V64.45ZM11.1422 64.51V30.65V64.51ZM39.6627 81.63L11.3735 64.54L39.6627 81.63ZM39.8651 81.63L68.1542 64.54L39.8651 81.63ZM39.8072 1.39V38.96V1.39ZM39.788 47.59V81.69Z" fill="black"/>
<path d="M39.788 47.59V81.69M39.653 13.42L11.3639 30.5L39.653 13.42ZM39.7205 1L33.6386 8.63L39.7205 1ZM45.8892 8.63L39.8169 1L45.8892 8.63ZM78.4578 70.76L75.3446 61.41L78.4578 70.76ZM78.4097 70.85L68.9639 72.26L78.4097 70.85ZM1.01206 70.79L10.4289 72.41L1.01206 70.79ZM0.963867 70.71L4.26989 61.42L0.963867 70.71ZM39.8554 13.42L68.1446 30.5L39.8554 13.42ZM39.6145 47.52L12.0771 30.95L39.6145 47.52ZM39.8072 47.67L68.0964 30.59L39.8072 47.67ZM1.06989 70.53L32.8675 51.59L1.06989 70.53ZM78.4868 70.64L47.1036 51.85L78.4868 70.64ZM68.1542 64.45V30.49V64.45ZM11.1422 64.51V30.65V64.51ZM39.6627 81.63L11.3735 64.54L39.6627 81.63ZM39.8651 81.63L68.1542 64.54L39.8651 81.63ZM39.8072 1.39V38.96V1.39Z" stroke="black" stroke-width="1.3" stroke-linecap="round"/>
<path d="M39.8073 67.39C50.3845 67.39 58.9591 58.4939 58.9591 47.52C58.9591 36.5461 50.3845 27.65 39.8073 27.65C29.23 27.65 20.6555 36.5461 20.6555 47.52C20.6555 58.4939 29.23 67.39 39.8073 67.39Z" stroke="url(#paint0_linear)" stroke-width="1.3" stroke-linecap="round"/>
<defs>
<linearGradient id="paint0_linear" x1="53.0741" y1="32.2996" x2="25.4617" y2="61.732" gradientUnits="userSpaceOnUse">
<stop stop-color="#FDBE10"/>
<stop offset="0.1565" stop-color="#F2671E"/>
<stop offset="0.2275" stop-color="#ED4523"/>
<stop offset="0.2988" stop-color="#CC3D43"/>
<stop offset="0.4004" stop-color="#A3336B"/>
<stop offset="0.4806" stop-color="#892C84"/>
<stop offset="0.5288" stop-color="#802A8D"/>
<stop offset="0.7947" stop-color="#2483C5"/>
<stop offset="1" stop-color="#00AC4C"/>
</linearGradient>
</defs>
</svg>
