<svg width="80" height="68" viewBox="0 0 80 68" fill="none" xmlns="http://www.w3.org/2000/svg">
<path fill-rule="evenodd" clip-rule="evenodd" d="M74.5644 56.98H4.8C2.75068 56.98 1.09589 55.47 1.09589 53.6V4.38C1.09589 2.51 2.75068 1 4.8 1H74.5644C76.6137 1 78.2685 2.51 78.2685 4.38V53.6C78.2699 54.0442 78.1751 54.4844 77.9895 54.895C77.8038 55.3057 77.5311 55.6788 77.1868 55.993C76.8426 56.3071 76.4336 56.556 75.9836 56.7254C75.5335 56.8948 75.0512 56.9813 74.5644 56.98V56.98Z" stroke="black" stroke-width="1.3" stroke-linecap="round"/>
<path fill-rule="evenodd" clip-rule="evenodd" d="M71.4411 51.29H7.93425C7.73698 51.29 7.5726 51.14 7.5726 50.96V7.02C7.5726 6.84 7.73698 6.69 7.93425 6.69H71.4411C71.6384 6.69 71.8027 6.84 71.8027 7.02V50.96C71.8027 51.14 71.6384 51.29 71.4411 51.29V51.29Z" stroke="black" stroke-width="1.3" stroke-linecap="round"/>
<path d="M29.9945 57.63V66.62" stroke="black" stroke-width="1.3"/>
<path d="M56.2411 66.9301H23.189" stroke="black" stroke-width="1.3" stroke-linecap="round"/>
<path d="M49.2931 57.63V66.62" stroke="black" stroke-width="1.3"/>
<path d="M15.2329 28.48H21.4795M15.2548 14.34H21.5014H15.2548ZM15.211 19.05H21.4575H15.211ZM15.2767 23.78H21.5233H15.2767ZM25.8959 14.33H32.1425H25.8959ZM25.8521 19.03H32.0986H25.8521ZM36.5918 14.33H42.8384H36.5918ZM36.5479 19.03H42.7945H36.5479ZM47.2548 19.03H53.5014H47.2548ZM25.9178 23.77H32.1644H25.9178ZM47.9014 43.65L53.2932 32.75L47.9014 43.65ZM56.6685 43.18L64.1644 38.31L56.6685 43.18ZM56.6466 33.39L64.1534 38.24L56.6466 33.39ZM44.4822 43.15L36.9863 38.28L44.4822 43.15ZM44.5041 33.36L36.9973 38.21L44.5041 33.36Z" stroke="url(#paint0_linear)" stroke-width="1.3" stroke-linecap="round"/>
<defs>
<linearGradient id="paint0_linear" x1="54.3473" y1="24.5706" x2="26.5441" y2="42.7672" gradientUnits="userSpaceOnUse">
<stop stop-color="#FDBE10"/>
<stop offset="0.1565" stop-color="#F2671E"/>
<stop offset="0.2275" stop-color="#ED4523"/>
<stop offset="0.2988" stop-color="#CC3D43"/>
<stop offset="0.4004" stop-color="#A3336B"/>
<stop offset="0.4806" stop-color="#892C84"/>
<stop offset="0.5288" stop-color="#802A8D"/>
<stop offset="0.7947" stop-color="#2483C5"/>
<stop offset="1" stop-color="#00AC4C"/>
</linearGradient>
</defs>
</svg>
