<svg width="80" height="69" viewBox="0 0 80 69" fill="none" xmlns="http://www.w3.org/2000/svg">
<path d="M54.7902 39.97V36.82M40.078 49.52H4.27315C2.44876 49.52 0.975586 48 0.975586 46.13V4.39C0.975586 2.52 2.44876 1 4.27315 1H56.4195C58.2439 1 59.717 2.52 59.717 4.39V24.43L40.078 49.52ZM59.717 39.97V36.82V39.97Z" stroke="black" stroke-width="1.3" stroke-linecap="round"/>
<path d="M40.078 44.58H6.22436C6.04875 44.58 5.9024 44.43 5.9024 44.25V6.27C5.9024 6.08 6.04875 5.94 6.22436 5.94H54.4683C54.6439 5.94 54.7902 6.08 54.7902 6.27V24.43" stroke="black" stroke-width="1.3" stroke-linecap="round"/>
<path d="M22.9365 50.1899V57.9799" stroke="black" stroke-width="1.3"/>
<path d="M17.7658 58.25H40.078" stroke="black" stroke-width="1.3" stroke-linecap="round"/>
<path d="M37.639 50.1899V57.9799" stroke="black" stroke-width="1.3"/>
<rect x="40" y="25" width="39" height="43" fill="white"/>
<path fill-rule="evenodd" clip-rule="evenodd" d="M78.2439 36.82H41.1804C40.5658 36.82 40.078 36.31 40.078 35.69V25.56C40.078 24.93 40.5756 24.43 41.1804 24.43H78.2439C78.8585 24.43 79.3463 24.94 79.3463 25.56V35.69C79.3463 36.31 78.8585 36.82 78.2439 36.82ZM78.2439 52.36H41.1804C40.5658 52.36 40.078 51.85 40.078 51.23V41.1C40.078 40.47 40.5756 39.97 41.1804 39.97H78.2439C78.8585 39.97 79.3463 40.48 79.3463 41.1V51.23C79.3463 51.85 78.8585 52.36 78.2439 52.36V52.36ZM78.2439 67.9H41.1804C40.5658 67.9 40.078 67.39 40.078 66.77V56.64C40.078 56.01 40.5756 55.51 41.1804 55.51H78.2439C78.8585 55.51 79.3463 56.02 79.3463 56.64V66.77C79.3463 67.4 78.8585 67.9 78.2439 67.9V67.9Z" stroke="black" stroke-width="1.3" stroke-linecap="round"/>
<path fill-rule="evenodd" clip-rule="evenodd" d="M54.839 32.39H44.361C44.3092 32.39 44.2596 32.3689 44.223 32.3314C44.1864 32.2939 44.1658 32.243 44.1658 32.19V29.14C44.1658 29.03 44.2536 28.94 44.361 28.94H54.839C54.9463 28.94 55.0341 29.03 55.0341 29.14V32.19C55.0341 32.243 55.0136 32.2939 54.977 32.3314C54.9404 32.3689 54.8908 32.39 54.839 32.39V32.39ZM68.478 28.86C68.0634 28.8748 67.6705 29.0541 67.3823 29.36C67.094 29.666 66.9329 30.0747 66.9329 30.5C66.9329 30.9253 67.094 31.334 67.3823 31.6399C67.6705 31.9458 68.0634 32.1251 68.478 32.14C68.8927 32.1251 69.2856 31.9458 69.5738 31.6399C69.862 31.334 70.0231 30.9253 70.0231 30.5C70.0231 30.0747 69.862 29.666 69.5738 29.36C69.2856 29.0541 68.8927 28.8748 68.478 28.86ZM73.6683 28.85C73.2536 28.8648 72.8607 29.0441 72.5725 29.35C72.2843 29.656 72.1232 30.0647 72.1232 30.49C72.1232 30.9153 72.2843 31.324 72.5725 31.6299C72.8607 31.9358 73.2536 32.1151 73.6683 32.13C74.083 32.1151 74.4758 31.9358 74.764 31.6299C75.0523 31.324 75.2134 30.9153 75.2134 30.49C75.2134 30.0647 75.0523 29.656 74.764 29.35C74.4758 29.0441 74.083 28.8648 73.6683 28.85V28.85ZM63.2878 28.85C62.8731 28.8648 62.4803 29.0441 62.192 29.35C61.9038 29.656 61.7427 30.0647 61.7427 30.49C61.7427 30.9153 61.9038 31.324 62.192 31.6299C62.4803 31.9358 62.8731 32.1151 63.2878 32.13C63.7025 32.1151 64.0953 31.9358 64.3835 31.6299C64.6718 31.324 64.8329 30.9153 64.8329 30.49C64.8329 30.0647 64.6718 29.656 64.3835 29.35C64.0953 29.0441 63.7025 28.8648 63.2878 28.85V28.85ZM54.839 47.93H44.361C44.3353 47.93 44.31 47.9248 44.2863 47.9148C44.2626 47.9047 44.2411 47.89 44.223 47.8714C44.2049 47.8528 44.1905 47.8308 44.1807 47.8065C44.1709 47.7822 44.1658 47.7562 44.1658 47.73V44.68C44.1658 44.57 44.2536 44.48 44.361 44.48H54.839C54.9463 44.48 55.0341 44.57 55.0341 44.68V47.73C55.0341 47.7562 55.0291 47.7822 55.0193 47.8065C55.0095 47.8308 54.9951 47.8528 54.977 47.8714C54.9589 47.89 54.9373 47.9047 54.9137 47.9148C54.89 47.9248 54.8646 47.93 54.839 47.93V47.93ZM68.478 44.4C68.0634 44.4148 67.6705 44.5941 67.3823 44.9C67.094 45.206 66.9329 45.6147 66.9329 46.04C66.9329 46.4653 67.094 46.874 67.3823 47.1799C67.6705 47.4858 68.0634 47.6651 68.478 47.68C69.3561 47.68 70.078 46.95 70.078 46.04C70.0683 45.13 69.3561 44.4 68.478 44.4ZM73.6683 44.4C73.2536 44.4148 72.8607 44.5941 72.5725 44.9C72.2843 45.206 72.1232 45.6147 72.1232 46.04C72.1232 46.4653 72.2843 46.874 72.5725 47.1799C72.8607 47.4858 73.2536 47.6651 73.6683 47.68C74.5463 47.68 75.2683 46.95 75.2683 46.04C75.2585 45.13 74.5463 44.4 73.6683 44.4ZM63.2878 44.4C62.8731 44.4148 62.4803 44.5941 62.192 44.9C61.9038 45.206 61.7427 45.6147 61.7427 46.04C61.7427 46.4653 61.9038 46.874 62.192 47.1799C62.4803 47.4858 62.8731 47.6651 63.2878 47.68C64.1658 47.68 64.8878 46.95 64.8878 46.04C64.878 45.13 64.1658 44.4 63.2878 44.4ZM54.839 63.47H44.361C44.3353 63.47 44.31 63.4648 44.2863 63.4548C44.2626 63.4447 44.2411 63.43 44.223 63.4114C44.2049 63.3928 44.1905 63.3708 44.1807 63.3465C44.1709 63.3222 44.1658 63.2962 44.1658 63.27V60.22C44.1658 60.11 44.2536 60.02 44.361 60.02H54.839C54.9463 60.02 55.0341 60.11 55.0341 60.22V63.27C55.0341 63.39 54.9463 63.47 54.839 63.47V63.47ZM68.478 59.94C68.0634 59.9548 67.6705 60.1341 67.3823 60.44C67.094 60.746 66.9329 61.1547 66.9329 61.58C66.9329 62.0053 67.094 62.414 67.3823 62.7199C67.6705 63.0258 68.0634 63.2051 68.478 63.22C69.3561 63.22 70.078 62.49 70.078 61.58C70.0683 60.67 69.3561 59.94 68.478 59.94ZM73.6683 59.94C73.2536 59.9548 72.8607 60.1341 72.5725 60.44C72.2843 60.746 72.1232 61.1547 72.1232 61.58C72.1232 62.0053 72.2843 62.414 72.5725 62.7199C72.8607 63.0258 73.2536 63.2051 73.6683 63.22C74.5463 63.22 75.2683 62.49 75.2683 61.58C75.2585 60.67 74.5463 59.94 73.6683 59.94ZM63.2878 59.94C62.8731 59.9548 62.4803 60.1341 62.192 60.44C61.9038 60.746 61.7427 61.1547 61.7427 61.58C61.7427 62.0053 61.9038 62.414 62.192 62.7199C62.4803 63.0258 62.8731 63.2051 63.2878 63.22C64.1658 63.22 64.8878 62.49 64.8878 61.58C64.878 60.67 64.1658 59.94 63.2878 59.94Z" stroke="url(#paint0_linear)" stroke-width="1.3" stroke-linecap="round"/>
<defs>
<linearGradient id="paint0_linear" x1="75.7006" y1="34.6191" x2="41.1935" y2="54.0557" gradientUnits="userSpaceOnUse">
<stop stop-color="#FDBE10"/>
<stop offset="0.1565" stop-color="#F2671E"/>
<stop offset="0.2275" stop-color="#ED4523"/>
<stop offset="0.2988" stop-color="#CC3D43"/>
<stop offset="0.4004" stop-color="#A3336B"/>
<stop offset="0.4806" stop-color="#892C84"/>
<stop offset="0.5288" stop-color="#802A8D"/>
<stop offset="0.7947" stop-color="#2483C5"/>
<stop offset="1" stop-color="#00AC4C"/>
</linearGradient>
</defs>
</svg>
